# xmcd CD database file
#
# Track frame offsets:
#	150
#	14591
#	29364
#	70189
#	92795
#	115190
#	138894
#	153792
#	176811
#	189468
#	200344
#	216391
#	231257
#	248757
#	272857
#	285577
#	286831
#	290058
#	296974
#	299286
#	301300
#	309642
#	312631
#	323892
#
# Disc length: 4393 seconds
#
# Revision: 0
# Processed by: cddbd v1.5.2PL0 Copyright (c) Steve Scherf et al.
# Submitted via: CDex 1.51
#
DISCID=7e112718
DTITLE=Laurent Mignard Duke Orchestra - Ellington French Touch
DYEAR=2011
DGENRE=Jazz
TTITLE0=The Good Life
TTITLE1=Goof
TTITLE2=Gogo
TTITLE3=Gigi
TTITLE4=Paris Blues
TTITLE5=Battle Royal
TTITLE6=Paris Blues - Alternate Bed
TTITLE7=Autumnal Suite
TTITLE8=Under Paris Skies
TTITLE9=No Regrets
TTITLE10=Daily Double
TTITLE11=Comme Ci, Comme Ca
TTITLE12=A Midnight In Paris
TTITLE13=The Old Circus Train
TTITLE14=Annonce 1 Ouverture
TTITLE15=Turcaret Court
TTITLE16=Flamant
TTITLE17=La Baronne
TTITLE18=Madame Turcaret
TTITLE19=Chevalier
TTITLE20=Frontin
TTITLE21=La Colère De Turcaret
TTITLE22=Lisette
TTITLE23=Turcaret Final
EXTD=YEAR: 2011
EXTT0=
EXTT1=
EXTT2=
EXTT3=
EXTT4=
EXTT5=
EXTT6=
EXTT7=
EXTT8=
EXTT9=
EXTT10=
EXTT11=
EXTT12=
EXTT13=
EXTT14=
EXTT15=
EXTT16=
EXTT17=
EXTT18=
EXTT19=
EXTT20=
EXTT21=
EXTT22=
EXTT23=
PLAYORDER=
